<?xml version="1.0" standalone="no"?>
<!DOCTYPE svg PUBLIC "-//W3C//DTD SVG 20010904//EN"
 "http://www.w3.org/TR/2001/REC-SVG-20010904/DTD/svg10.dtd">
<svg version="1.0" xmlns="http://www.w3.org/2000/svg"
 width="512.000000pt" height="512.000000pt" viewBox="0 0 512.000000 512.000000"
 preserveAspectRatio="xMidYMid meet">

<g transform="translate(0.000000,512.000000) scale(0.100000,-0.100000)"
fill="#000000" stroke="none">
<path d="M982 4607 l-412 -412 0 -1726 c0 -1659 1 -1727 18 -1742 15 -14 42
-17 155 -17 l137 0 0 -139 c0 -133 1 -141 22 -155 20 -14 162 -16 1325 -16
1290 0 1303 0 1323 20 25 25 25 55 0 80 -20 20 -33 20 -1290 20 l-1270 0 0 95
0 95 1118 0 c1071 0 1120 1 1135 18 19 21 22 49 7 72 -8 13 -166 16 -1287 20
l-1278 5 -3 1643 -2 1642 374 0 c353 0 375 1 397 19 l24 19 3 381 3 381 1112
-2 1112 -3 2 -1695 3 -1695 21 -17 c27 -23 52 -23 72 0 16 17 17 140 17 1560
l0 1542 95 0 95 0 0 -1680 c0 -1667 0 -1680 20 -1700 25 -25 55 -25 80 0 20
20 20 33 20 1733 0 1534 -2 1715 -16 1735 -14 21 -22 22 -155 22 l-139 0 0
138 c0 122 -2 141 -18 155 -17 16 -116 17 -1213 17 l-1194 0 -413 -413z m378
-82 l0 -295 -297 0 -298 0 295 295 c162 162 296 295 297 295 2 0 3 -133 3
-295z"/>
<path d="M1822 4664 c-30 -20 -30 -68 0 -88 20 -14 109 -16 768 -16 821 0 790
-2 790 60 0 62 31 60 -790 60 -659 0 -748 -2 -768 -16z"/>
<path d="M1816 4351 c-25 -27 -17 -72 14 -88 36 -18 1484 -18 1520 0 31 16 39
61 14 88 -17 18 -41 19 -774 19 -733 0 -757 -1 -774 -19z"/>
<path d="M2522 4044 c-30 -20 -30 -68 0 -88 19 -14 76 -16 418 -16 437 0 440
0 440 60 0 60 -3 60 -440 60 -342 0 -399 -2 -418 -16z"/>
<path d="M2522 3734 c-30 -20 -30 -68 0 -88 19 -14 76 -16 418 -16 437 0 440
0 440 60 0 60 -3 60 -440 60 -342 0 -399 -2 -418 -16z"/>
<path d="M2330 3394 c-14 -2 -59 -9 -100 -15 -226 -34 -494 -176 -654 -350
-213 -230 -320 -504 -319 -819 1 -314 111 -584 331 -812 311 -323 772 -438
1204 -302 87 28 226 93 292 139 l39 26 52 -51 c49 -48 52 -53 53 -106 3 -116
14 -130 445 -560 429 -428 435 -433 556 -441 126 -9 234 55 292 172 29 60 31
71 27 142 -3 54 -12 92 -27 123 -25 49 -742 778 -818 831 -42 29 -135 59 -185
59 -19 0 -43 14 -79 48 l-51 48 37 54 c186 281 237 674 128 1005 -132 405
-468 703 -888 790 -78 16 -286 28 -335 19z m263 -129 c421 -63 759 -370 869
-790 26 -102 36 -314 18 -423 -73 -455 -427 -809 -882 -882 -110 -18 -321 -8
-425 19 -579 151 -919 734 -762 1311 140 514 650 845 1182 765z"/>
<path d="M2288 3070 c-222 -40 -427 -168 -554 -347 -171 -238 -210 -543 -105
-824 63 -169 214 -340 383 -437 74 -43 217 -88 318 -102 259 -36 536 63 721
256 164 172 240 357 242 589 3 223 -63 407 -207 579 -94 114 -285 232 -436
271 -74 19 -290 28 -362 15z m300 -126 c218 -44 413 -197 511 -398 55 -114 74
-199 75 -331 0 -132 -24 -228 -87 -349 -58 -113 -190 -245 -303 -303 -144 -75
-296 -103 -443 -83 -363 50 -627 333 -648 695 -12 209 56 398 199 550 176 189
439 272 696 219z"/>
<path d="M2097 2552 c-35 -39 -23 -60 118 -201 l135 -137 -135 -134 c-107
-107 -135 -140 -135 -162 0 -27 31 -58 59 -58 8 0 77 62 153 137 l138 137 138
-137 c145 -144 164 -155 202 -117 38 38 27 57 -117 202 l-137 138 137 138 c75
76 137 145 137 153 0 28 -31 59 -58 59 -22 0 -55 -28 -162 -135 l-135 -135
-135 135 c-143 142 -167 157 -203 117z"/>
</g>
</svg>
